<!DOCTYPE svg PUBLIC "-//W3C//DTD SVG 1.1//EN" "http://www.w3.org/Graphics/SVG/1.1/DTD/svg11.dtd">
<!-- Uploaded to: SVG Repo, www.svgrepo.com, Transformed by: SVG Repo Mixer Tools -->
<svg fill="#00b478" height="30px" width="30px" version="1.1" id="Layer_1" xmlns="http://www.w3.org/2000/svg" xmlns:xlink="http://www.w3.org/1999/xlink" viewBox="0 0 511.999 511.999" xml:space="preserve" stroke="#00b478">
	<g id="SVGRepo_bgCarrier" stroke-width="0" />
	<g id="SVGRepo_tracerCarrier" stroke-linecap="round" stroke-linejoin="round" />
	<g id="SVGRepo_iconCarrier">
		<g>
			<g>
				<path d="M360.819,34.266c-60.848-45.895-150.896-46.233-212.451,2.289c-82.192,64.789-95.816,198.164-4.023,273.583v88.229 c0,23.72,18.219,46.42,48.59,46.42c0,43.188,31.195,67.212,63.025,67.212c31.692,0,63.024-23.83,63.024-67.212 c29.847,0,48.59-22.204,48.59-46.42v-88.228C460.499,233.814,445.52,98.154,360.819,34.266z M255.961,476.284 c-13.6,0-27.31-9.357-27.31-31.497h54.619C283.269,465.81,270.635,476.284,255.961,476.284z M331.861,398.367 c-0.001,5.902-4.802,10.705-10.705,10.705c-14.878,0-116.535,0-130.39,0c-5.903,0-10.705-4.801-10.705-10.705v-20.773h151.8 V398.367z M339.06,287.111c-4.53,3.37-7.199,8.684-7.199,14.329v40.44h-58.042V258.51l43.382-75.141 c4.931-8.541,2.005-19.462-6.536-24.393c-8.542-4.931-19.464-2.005-24.393,6.536l-30.309,52.499l-30.31-52.499 c-4.93-8.541-15.853-11.467-24.393-6.536c-8.541,4.932-11.467,15.853-6.536,24.393l43.382,75.141v83.371h-58.042v-40.44 c0-5.645-2.67-10.959-7.199-14.329c-80.441-59.835-68.482-170.404-2.382-222.508c48.157-37.963,120.495-38.283,168.833-1.824 C407.271,114.039,420.593,226.465,339.06,287.111z" />
			</g>
		</g>
	</g>
</svg>
